<?xml version="1.0" standalone="no"?>
<!DOCTYPE svg PUBLIC "-//W3C//DTD SVG 20010904//EN"
 "http://www.w3.org/TR/2001/REC-SVG-20010904/DTD/svg10.dtd">
<svg version="1.0" xmlns="http://www.w3.org/2000/svg"
 width="616.000000pt" height="616.000000pt" viewBox="0 0 616.000000 616.000000"
 preserveAspectRatio="xMidYMid meet">
<metadata>
Created by potrace 1.14, written by Peter Selinger 2001-2017
</metadata>
<g transform="translate(0.000000,616.000000) scale(0.100000,-0.100000)"
fill="#000000" stroke="none">
<path d="M784 3949 c-3 -6 -12 -8 -20 -5 -8 3 -17 -1 -20 -9 -4 -8 -9 -13 -13
-11 -7 5 -72 -30 -72 -38 1 -3 -2 -7 -6 -8 -5 -1 -23 -20 -42 -43 -18 -22 -35
-39 -38 -37 -2 1 -14 -9 -27 -22 -17 -19 -25 -23 -34 -14 -9 9 -12 9 -12 0 0
-7 -3 -11 -7 -11 -5 1 -10 0 -13 -1 -14 -5 -48 -12 -67 -13 -13 0 -23 -4 -23
-8 0 -6 -49 -19 -77 -20 -5 -1 -23 -7 -42 -15 -18 -8 -37 -11 -42 -8 -5 3 -9
2 -9 -3 0 -4 -13 -14 -28 -21 -59 -25 -115 -101 -130 -172 -9 -47 -9 -67 2
-79 9 -12 8 -13 -3 -7 -10 7 -12 4 -7 -12 6 -19 14 -49 20 -81 1 -7 -8 -25
-21 -39 -13 -14 -23 -31 -23 -38 0 -8 -4 -14 -10 -14 -5 0 -7 -7 -4 -15 4 -8
2 -15 -4 -15 -8 0 -10 -149 -2 -157 3 -3 4 -6 15 -40 4 -13 12 -23 18 -23 6 0
8 -3 4 -6 -3 -3 34 -45 82 -93 78 -77 103 -116 106 -158 0 -6 4 -15 8 -19 4
-4 7 -20 7 -36 0 -15 4 -28 8 -28 7 0 12 -24 15 -67 0 -7 4 -13 10 -13 5 0 7
-6 4 -12 -5 -15 32 -69 78 -114 36 -35 54 -44 113 -58 9 -3 17 -5 17 -6 0 -1
10 -3 23 -4 12 -2 22 2 22 8 0 6 4 5 9 -3 8 -12 12 -12 24 -2 12 9 16 9 20 -1
4 -10 6 -10 6 0 2 21 33 13 60 -16 24 -25 60 -47 101 -60 8 -3 44 -6 79 -8 76
-3 151 26 191 75 14 17 31 30 37 31 7 0 12 6 10 13 -1 6 4 11 11 10 6 -2 12 1
12 7 0 12 60 70 72 70 5 0 6 4 3 10 -3 5 5 15 19 22 14 6 26 15 26 20 0 5 4 7
9 3 5 -3 12 -1 16 5 3 5 11 10 16 10 6 0 8 -4 4 -9 -3 -5 8 -3 25 5 16 9 34
13 39 10 5 -4 11 -2 13 3 1 5 17 12 33 14 49 9 98 30 129 57 46 40 66 63 66
77 0 7 5 13 11 13 5 0 7 5 4 10 -3 6 -1 10 5 10 6 0 9 4 6 8 -2 4 -1 14 4 22
5 9 5 19 -2 27 -7 9 -7 13 2 13 7 0 10 8 7 20 -3 11 -1 20 5 20 5 0 6 5 2 12
-17 27 -12 61 10 82 13 11 24 23 24 26 2 18 25 66 35 72 9 6 9 8 -1 8 -7 0
-10 4 -7 10 9 14 13 90 6 90 -4 0 -8 12 -9 27 -1 15 -9 37 -17 50 -9 13 -13
23 -10 23 6 0 -12 23 -33 43 -7 7 -18 18 -25 25 -7 7 -39 39 -73 72 -33 33
-61 67 -62 75 -1 8 -3 22 -4 30 -1 8 -4 15 -8 15 -4 0 -7 6 -7 14 0 13 -20 98
-30 126 -3 8 -7 22 -9 30 -8 44 -22 77 -45 111 -10 14 -16 29 -12 33 3 3 -1 6
-10 6 -10 0 -17 4 -17 8 0 13 -108 74 -119 67 -6 -3 -11 0 -11 7 0 10 -2 10
-8 1 -5 -7 -13 -9 -21 -4 -8 5 -27 7 -43 4 -23 -3 -28 -1 -23 9 3 7 -1 4 -9
-6 -9 -11 -16 -17 -16 -13 0 4 -10 3 -21 -4 -12 -6 -24 -7 -28 -3 -11 16 -69
44 -91 44 -11 0 -19 4 -16 8 3 5 -22 9 -54 10 -33 0 -62 -4 -66 -9z"/>
<path d="M2030 3867 c-70 -13 -120 -33 -120 -48 0 -4 -9 -11 -20 -14 -11 -4
-18 -11 -15 -16 4 -5 2 -9 -3 -9 -6 0 -16 -15 -22 -32 -15 -40 -20 -118 -8
-118 5 0 7 -4 4 -8 -14 -23 85 -122 122 -122 6 0 23 -5 39 -12 15 -6 39 -13
53 -15 13 -2 30 -8 36 -14 6 -5 14 -6 17 -3 6 7 77 -33 78 -44 0 -4 2 -15 4
-24 4 -21 -22 -58 -41 -58 -8 0 -14 -4 -14 -8 0 -5 -31 -8 -70 -7 -56 0 -75 5
-97 23 -15 12 -31 22 -35 22 -4 0 -8 7 -8 16 0 8 -4 12 -10 9 -5 -3 -10 -2
-10 3 0 5 -7 9 -15 9 -8 0 -15 -6 -15 -14 0 -7 -3 -12 -8 -11 -4 2 -20 -7 -36
-19 -25 -20 -27 -25 -15 -40 28 -37 58 -62 83 -69 14 -3 26 -9 26 -13 0 -4 6
-8 13 -9 38 -4 122 -19 122 -22 0 -1 8 -3 18 -5 9 -2 15 0 12 5 -3 4 8 8 23 8
52 2 77 8 116 27 47 24 86 60 86 80 0 8 4 15 8 15 8 0 14 35 14 85 0 39 -33
115 -50 115 -7 0 -10 5 -7 10 3 6 -1 10 -9 10 -9 0 -16 5 -16 10 0 5 -3 9 -7
9 -19 -3 -34 2 -29 9 2 4 -5 8 -17 9 -39 2 -171 45 -199 65 -22 15 -27 26 -24
49 3 29 33 62 48 53 5 -3 8 -2 8 3 0 4 11 9 25 9 15 1 22 -2 18 -9 -4 -6 -1
-7 8 -1 20 12 39 14 39 3 0 -5 3 -8 8 -7 14 4 52 -13 52 -23 0 -6 4 -8 9 -4 6
3 14 -2 19 -12 9 -16 12 -16 38 2 16 10 38 27 49 37 19 18 19 20 3 32 -10 7
-18 19 -18 26 0 7 -3 11 -6 7 -3 -3 -14 2 -25 11 -11 9 -24 18 -29 18 -6 1
-12 3 -15 4 -3 1 -9 4 -15 5 -5 1 -11 3 -12 4 -15 12 -112 17 -158 8z"/>
<path d="M2697 3874 c-1 -1 -18 -3 -37 -5 -19 -2 -41 -8 -49 -13 -8 -6 -16
-10 -18 -8 -8 6 -68 -33 -95 -62 -32 -34 -72 -110 -71 -135 0 -9 -4 -22 -10
-28 -6 -9 -6 -13 2 -13 8 0 9 -6 3 -17 -10 -18 -8 -91 3 -148 3 -16 6 -36 7
-42 1 -7 5 -13 10 -13 5 0 6 -4 3 -10 -3 -5 -1 -10 6 -10 7 0 9 -3 6 -6 -17
-18 82 -121 126 -131 15 -3 27 -9 27 -13 0 -7 3 -8 55 -13 17 -1 36 -6 44 -11
10 -6 12 -5 7 2 -4 7 -1 12 9 12 10 0 13 -5 9 -12 -5 -7 -3 -8 7 -2 8 5 17 9
22 10 4 1 8 2 10 4 1 1 13 3 25 4 13 2 27 7 30 12 4 5 13 10 20 12 45 9 137
122 130 159 -2 12 -18 22 -48 29 -55 14 -65 10 -80 -26 -13 -31 -73 -83 -84
-73 -3 4 -6 1 -6 -7 0 -10 -3 -10 -14 -1 -10 9 -16 9 -21 1 -5 -8 -11 -7 -23
2 -13 11 -14 11 -7 -2 8 -13 7 -13 -10 0 -10 8 -19 13 -21 10 -3 -5 -40 27
-62 55 -8 9 -11 23 -8 31 3 7 2 14 -3 14 -9 0 -10 7 -14 95 -1 39 2 73 8 77 6
5 6 8 -2 8 -16 0 21 98 47 122 11 11 29 20 40 21 11 1 20 4 20 7 0 3 14 6 30
6 17 1 30 -3 30 -8 0 -6 6 -8 13 -5 6 2 18 -2 25 -9 7 -8 9 -14 5 -14 -4 0 0
-5 10 -11 9 -6 15 -14 12 -20 -4 -5 -1 -9 4 -9 6 0 11 -9 11 -21 0 -19 5 -20
63 -18 76 3 86 6 82 27 -2 9 -4 18 -5 20 -2 1 -3 6 -4 11 0 5 -4 13 -8 17 -5
4 -8 16 -8 27 0 11 -3 17 -7 14 -3 -4 -15 5 -25 20 -10 16 -18 24 -18 20 0 -5
-7 -2 -15 5 -38 35 -43 37 -115 55 -20 5 -70 10 -73 7z"/>
<path d="M3080 3859 c-7 -11 -9 -23 -6 -26 3 -3 1 -14 -5 -24 -5 -11 -6 -19
-2 -19 4 0 8 -20 8 -45 0 -25 -3 -45 -8 -45 -4 0 -3 -8 2 -18 5 -10 6 -24 2
-31 -5 -7 -5 -30 -1 -51 4 -21 4 -44 -1 -51 -4 -7 -4 -20 1 -29 5 -9 5 -22 1
-29 -5 -7 -5 -30 -1 -51 4 -21 4 -44 -1 -51 -4 -7 -4 -20 1 -29 5 -9 5 -22 0
-30 -5 -8 -7 -17 -4 -22 3 -4 5 -27 6 -51 l0 -44 67 0 c84 0 93 7 87 69 -4 36
-3 47 6 42 7 -4 8 -3 4 5 -13 20 -16 122 -4 114 7 -4 8 -1 2 8 -16 26 -12 35
19 37 17 2 33 5 35 7 3 2 13 0 23 -6 13 -7 19 -6 19 1 0 6 5 8 12 4 16 -10 48
-13 48 -4 0 9 53 -1 60 -11 3 -4 5 -64 4 -133 -1 -69 3 -123 7 -120 5 3 9 1 9
-4 0 -5 29 -9 65 -9 75 1 78 5 72 90 -1 26 1 47 5 47 4 0 8 5 8 11 0 5 -3 8
-7 6 -5 -3 -6 32 -3 78 3 46 2 81 -2 78 -5 -2 -8 1 -8 6 0 6 5 11 12 11 8 0 9
3 2 10 -5 5 -7 38 -4 74 3 35 2 62 -2 60 -5 -3 -8 0 -8 5 0 6 5 11 11 11 5 0
7 5 3 12 -4 6 -6 40 -5 76 2 45 -2 67 -11 73 -19 13 -30 11 -22 -3 6 -10 4
-10 -7 -2 -8 6 -36 10 -64 10 l-50 -1 -1 -120 c0 -67 -3 -126 -7 -132 -5 -9
-15 -9 -32 -3 -18 7 -25 6 -25 -3 0 -8 -4 -7 -10 3 -6 9 -10 10 -10 3 0 -8 -9
-9 -30 -3 -17 5 -30 5 -30 0 0 -5 -13 -5 -30 0 -21 6 -30 5 -30 -3 0 -8 -3 -8
-11 0 -14 14 -21 125 -7 116 7 -3 8 -1 4 6 -14 22 -17 83 -5 75 8 -5 9 -3 3 7
-5 8 -7 22 -5 33 1 11 -2 16 -8 12 -6 -4 -11 -3 -11 3 0 6 -24 8 -60 6 -37 -2
-58 0 -55 6 4 5 4 9 1 9 -3 0 -10 -9 -16 -21z"/>
<path d="M3735 3859 c-10 -15 -13 -69 -4 -75 11 -6 -2 -44 -15 -44 -6 0 -5 -4
3 -9 8 -5 11 -16 8 -25 -4 -9 -1 -16 4 -16 7 0 4 -11 -6 -26 -9 -15 -11 -23
-4 -19 9 6 11 2 7 -13 -3 -12 -1 -23 4 -24 6 -2 3 -11 -6 -21 -11 -10 -13 -17
-6 -17 7 0 10 -8 7 -20 -3 -11 -1 -20 5 -20 6 0 3 -12 -7 -26 -9 -15 -11 -23
-4 -19 9 6 11 2 7 -13 -3 -12 -1 -23 6 -26 7 -3 6 -5 -3 -5 -11 -1 -11 -4 -1
-16 10 -12 10 -15 -1 -15 -11 0 -11 -2 1 -10 8 -5 10 -10 5 -10 -6 0 -9 -17
-7 -41 3 -28 0 -44 -9 -50 -12 -7 -12 -9 0 -9 9 0 11 -8 7 -26 -4 -15 -3 -23
3 -20 5 3 7 -2 4 -12 -4 -17 2 -19 56 -19 35 0 62 5 64 11 2 6 3 96 2 199 0
104 2 190 6 192 3 3 11 -7 17 -20 7 -14 16 -25 22 -25 5 0 10 -6 10 -12 0 -11
14 -30 60 -85 6 -7 7 -13 3 -13 -4 0 -3 -4 3 -8 22 -16 63 -79 56 -88 -4 -5
-3 -6 2 -2 4 4 29 -23 54 -60 25 -37 51 -72 57 -79 9 -9 69 -11 120 -4 11 1
12 627 1 638 -10 11 -107 10 -113 0 -3 -5 -8 -25 -10 -44 -4 -26 -2 -33 7 -28
9 6 9 3 1 -13 -6 -11 -11 -23 -11 -27 0 -3 5 -3 11 1 8 4 8 1 2 -12 -5 -11 -8
-74 -8 -140 l1 -122 -20 27 c-11 14 -24 28 -28 29 -5 2 -8 9 -8 15 0 7 -14 28
-30 47 -16 19 -30 39 -30 43 0 4 -9 17 -20 29 -11 12 -20 28 -20 35 0 7 -7 13
-16 13 -8 0 -13 4 -10 8 3 5 -6 20 -19 34 -13 14 -21 29 -18 32 4 3 1 6 -5 6
-7 0 -12 5 -12 10 0 6 -11 23 -25 39 -22 24 -33 28 -73 27 -26 -1 -53 -5 -61
-10 -10 -6 -12 -5 -7 2 4 7 5 12 2 12 -3 0 -8 -5 -11 -11z"/>
<path d="M4585 3853 c-8 -8 -13 -19 -10 -24 4 -5 1 -9 -5 -9 -6 0 -9 -4 -5 -9
3 -6 -4 -26 -15 -45 -13 -25 -16 -36 -7 -36 8 0 8 -3 1 -8 -5 -4 -18 -29 -28
-57 -10 -27 -20 -57 -23 -65 -4 -8 -7 -18 -8 -22 -2 -5 -3 -9 -5 -10 -1 -2 -3
-12 -5 -23 -2 -11 -9 -21 -15 -23 -5 -2 -8 -8 -4 -13 3 -5 2 -15 -3 -21 -4 -7
-9 -22 -10 -33 -2 -10 -8 -22 -14 -26 -6 -3 -10 -8 -9 -10 3 -8 -13 -65 -23
-76 -5 -7 -6 -13 -2 -13 4 0 2 -7 -5 -15 -7 -8 -9 -15 -5 -15 4 0 2 -7 -5 -15
-6 -8 -9 -18 -6 -24 3 -5 1 -11 -5 -13 -5 -2 -7 -11 -4 -20 5 -14 19 -17 65
-16 51 1 60 5 69 25 6 13 11 30 11 38 0 8 5 15 12 15 6 0 9 3 5 6 -11 11 14
62 34 67 11 3 16 1 13 -5 -4 -6 0 -7 12 -1 16 7 37 8 117 2 6 0 22 2 34 4 30
8 51 -19 55 -70 1 -7 5 -13 10 -13 4 0 8 -9 8 -21 0 -36 21 -46 98 -46 61 1
72 4 72 18 0 10 -4 20 -10 24 -5 3 -7 12 -3 20 3 8 -1 15 -8 15 -7 0 -9 3 -6
6 3 4 1 16 -5 28 -7 11 -11 25 -10 29 1 4 -5 21 -13 37 -9 16 -15 32 -15 35
-1 6 -4 16 -29 84 -11 30 -18 58 -15 63 3 4 0 8 -5 8 -6 0 -11 8 -11 18 0 9
-7 26 -15 36 -16 21 -20 40 -7 32 5 -3 -4 22 -20 55 -16 33 -26 64 -23 69 4 6
1 10 -4 10 -6 0 -11 9 -11 21 0 11 -6 26 -12 33 -14 13 -86 16 -104 4 -6 -4
-14 -4 -18 -1 -13 13 -36 11 -51 -4z m80 -163 c-3 -5 -2 -10 4 -10 6 0 8 -7 5
-15 -4 -8 -2 -15 4 -15 5 0 13 -15 17 -32 7 -31 9 -37 15 -55 1 -5 2 -11 1
-15 0 -5 3 -8 7 -8 5 0 9 -6 9 -12 0 -7 2 -20 4 -28 3 -9 -3 -14 -13 -14 -10
1 -18 -1 -18 -5 0 -9 -37 -7 -46 2 -4 4 -13 2 -21 -4 -10 -9 -13 -8 -13 0 0 7
-4 10 -9 7 -5 -4 -16 -3 -24 0 -14 5 -13 10 4 40 10 19 19 37 19 42 0 8 18 68
27 92 6 14 9 22 12 35 0 3 6 5 12 5 5 0 7 -4 4 -10z"/>
<path d="M5090 3858 c0 -5 -4 -6 -10 -3 -6 4 -10 -31 -11 -97 0 -121 0 -518 1
-534 0 -13 323 -14 336 -2 4 4 14 2 22 -5 12 -9 16 -9 19 1 3 6 13 12 23 12
26 0 70 21 70 33 0 6 3 7 7 4 7 -8 39 34 35 46 -1 4 3 7 9 7 5 0 9 8 8 18 -1
9 0 19 1 22 7 15 6 70 -1 70 -5 0 -9 9 -9 19 0 11 -6 26 -14 33 -25 24 -61 52
-61 48 0 -2 -9 2 -20 9 -19 11 -15 19 12 24 15 3 62 50 58 57 -3 5 1 10 9 13
15 6 20 117 5 117 -5 0 -9 7 -9 15 0 8 -4 15 -10 15 -5 0 -10 7 -10 15 0 8 -5
15 -11 15 -6 0 -23 9 -37 19 -15 10 -30 19 -34 20 -5 1 -9 2 -10 2 -22 12
-368 18 -368 7z m180 -103 c8 0 21 4 28 8 7 5 12 3 12 -4 0 -8 4 -8 15 1 9 7
15 8 15 2 0 -6 11 -9 25 -7 14 1 25 -1 25 -6 0 -4 8 -10 18 -13 10 -4 19 -12
20 -19 0 -6 3 -24 6 -39 4 -17 2 -28 -4 -28 -6 0 -9 -4 -6 -9 3 -5 -6 -16 -19
-25 -31 -20 -109 -31 -99 -14 5 7 2 8 -7 2 -24 -14 -59 -12 -68 5 -19 36 -2
181 18 155 3 -5 13 -9 21 -9z m11 -264 c0 8 3 9 5 4 2 -6 24 -10 49 -9 25 1
45 -2 45 -8 0 -5 5 -6 10 -3 6 3 10 1 10 -5 0 -6 3 -9 8 -7 4 3 13 -1 20 -9 7
-8 10 -14 7 -14 -3 0 -3 -6 2 -12 11 -19 12 -38 2 -38 -6 0 -8 -4 -5 -9 9 -14
-4 -41 -20 -41 -8 0 -14 -4 -14 -8 0 -10 -2 -10 -100 -15 l-75 -3 0 85 c0 63
3 85 13 84 6 -2 12 2 12 8 0 8 5 8 15 -1 12 -10 15 -10 16 1z"/>
<path d="M5705 3849 c-4 -11 -3 -29 0 -40 5 -16 4 -19 -5 -14 -9 6 -11 4 -5
-5 11 -18 13 -140 2 -140 -4 0 -5 -5 -1 -11 10 -17 11 -149 1 -149 -4 0 -5 -5
-1 -11 11 -18 11 -89 1 -82 -6 4 -7 1 -2 -7 10 -17 13 -140 3 -140 -5 0 -3 -8
3 -18 11 -18 29 -19 235 -19 l224 0 0 59 c0 32 -4 58 -10 58 -5 0 -10 -6 -10
-12 0 -9 -3 -10 -8 -2 -4 7 -37 10 -84 9 -49 -1 -75 2 -71 8 4 6 1 7 -6 3 -19
-12 -101 -13 -108 -2 -9 14 -8 130 1 144 4 7 4 12 -1 12 -4 0 -7 80 -7 179 1
98 -2 185 -7 192 -7 11 -12 12 -28 2 -10 -6 -22 -9 -25 -5 -4 3 -25 7 -46 8
-30 1 -41 -3 -45 -17z"/>
<path d="M2030 3019 c0 -5 -9 -9 -19 -9 -11 0 -23 -5 -26 -10 -4 -6 -11 -8
-16 -5 -5 4 -9 1 -9 -4 0 -6 -5 -11 -11 -11 -20 0 -103 -105 -95 -119 4 -5 1
-11 -5 -13 -6 -2 -11 -16 -11 -31 0 -15 -4 -27 -9 -27 -5 0 -6 -6 -3 -14 3 -8
1 -24 -5 -35 -8 -14 -8 -22 0 -27 8 -4 7 -9 -2 -15 -8 -5 -9 -9 -3 -9 12 0 12
-29 0 -48 -4 -7 -1 -14 7 -17 7 -3 13 -16 12 -28 -1 -12 4 -30 11 -41 7 -10
10 -25 7 -34 -4 -9 -2 -13 4 -9 5 3 16 -9 23 -28 8 -19 20 -35 27 -35 7 0 13
-4 13 -10 0 -13 71 -60 82 -54 4 3 8 0 8 -5 0 -6 11 -11 24 -11 14 0 28 -5 31
-10 5 -8 11 -7 21 1 11 9 14 9 14 -1 0 -10 3 -10 15 0 12 10 15 10 15 0 0 -9
3 -10 13 -1 8 6 16 9 18 6 3 -2 23 0 45 6 21 6 40 11 42 10 1 0 11 7 21 17 10
9 35 31 55 47 19 17 35 36 36 43 0 6 4 12 8 12 5 0 9 6 10 13 0 6 4 22 7 35 6
16 3 22 -9 22 -9 0 -16 3 -16 8 0 4 -19 8 -43 8 -40 2 -44 -1 -66 -38 -16 -28
-36 -45 -67 -59 -54 -22 -58 -23 -48 -6 5 7 0 6 -11 -3 -10 -8 -21 -14 -24
-12 -67 37 -82 49 -88 72 -3 14 -10 31 -16 38 -15 19 -12 230 4 250 1 1 2 5 3
10 7 34 63 81 89 74 4 -1 7 2 7 6 0 10 36 9 46 -1 4 -4 15 -7 24 -7 10 0 30
-17 46 -37 15 -20 22 -33 15 -29 -10 7 -11 4 -2 -13 7 -11 16 -21 21 -22 49
-5 110 -2 110 4 0 5 4 6 9 2 5 -3 12 -1 16 5 3 5 1 10 -5 10 -6 0 -8 4 -5 10
7 12 -23 80 -36 80 -5 0 -8 3 -7 8 4 10 -51 62 -65 62 -7 0 -18 5 -25 12 -16
16 -35 20 -129 23 -46 1 -83 -1 -83 -6z"/>
<path d="M2478 3025 c-10 -17 -13 -70 -3 -84 6 -11 4 -13 -10 -7 -14 5 -15 3
-7 -6 13 -16 13 -446 0 -454 -5 -3 -4 -12 2 -19 6 -7 9 -24 6 -37 -7 -40 7
-51 61 -50 74 3 78 6 79 57 1 27 -4 45 -10 45 -7 0 -7 3 -1 8 14 10 14 105 1
114 -7 5 -7 8 -1 8 6 0 10 25 11 55 0 30 -4 55 -8 55 -5 0 -6 6 -1 13 12 18
11 101 -1 109 -7 5 -7 8 -1 8 12 0 14 95 2 106 -4 4 -2 13 3 20 22 26 -11 69
-41 54 -10 -6 -20 -5 -27 2 -8 8 -15 8 -26 -1 -11 -9 -15 -9 -18 1 -3 7 -7 8
-10 3z"/>
<path d="M4231 3006 c-4 -10 -7 -39 -6 -65 l1 -46 49 -3 c83 -5 91 -1 90 60 0
69 -21 91 -62 65 -7 -5 -13 -4 -13 1 0 18 -52 8 -59 -12z"/>
<path d="M5418 2848 c-16 -5 -28 -14 -28 -19 0 -6 -4 -8 -9 -5 -5 3 -11 -1
-14 -9 -7 -16 -46 -12 -58 6 -4 6 -12 8 -19 4 -7 -4 -16 -2 -20 6 -9 14 -72
19 -107 7 -12 -4 -25 -3 -28 1 -3 5 -22 1 -42 -9 -21 -10 -41 -16 -45 -13 -5
2 -8 -1 -8 -6 0 -6 -6 -10 -12 -9 -7 2 -12 -3 -10 -9 1 -7 -2 -13 -8 -13 -26
0 -48 -101 -28 -127 6 -7 7 -13 4 -13 -4 0 6 -13 21 -28 15 -16 31 -27 36 -25
4 2 7 -2 7 -9 -1 -7 -18 -25 -40 -40 -43 -30 -49 -59 -18 -92 18 -20 25 -52
10 -42 -5 3 -21 -10 -37 -28 -29 -34 -41 -66 -24 -66 6 0 8 -4 4 -9 -6 -10 59
-67 72 -65 5 1 19 -3 33 -8 33 -13 164 -17 220 -6 25 5 53 10 63 11 9 1 17 5
17 9 0 4 10 8 22 8 12 0 18 3 15 7 -4 3 2 13 13 20 22 15 60 80 40 68 -9 -6
-9 -2 -1 12 6 11 7 24 3 28 -4 3 -7 10 -7 13 -2 24 -19 52 -31 52 -8 0 -14 4
-14 9 0 12 -56 31 -91 31 -15 0 -30 6 -32 13 -4 10 -6 10 -6 0 -1 -16 -31 -17
-31 -2 0 8 -5 7 -16 -2 -9 -7 -18 -9 -22 -3 -4 5 -25 9 -47 8 -58 -1 -67 4
-47 26 8 11 19 17 24 14 4 -3 8 -2 8 3 0 4 29 8 65 7 36 0 68 3 71 8 3 4 10 6
15 3 5 -4 9 -2 9 4 0 6 6 8 13 6 15 -7 87 62 88 84 0 9 2 28 4 44 2 16 -1 27
-8 27 -7 0 -4 7 6 14 10 8 29 13 42 11 27 -2 33 9 33 62 1 36 -12 44 -50 31z
m-170 -95 c21 -21 29 -64 18 -90 -21 -44 -121 -54 -156 -15 -8 9 -15 30 -15
46 1 31 39 81 55 71 5 -3 10 -2 10 2 0 14 72 2 88 -14z m-70 -367 c7 -4 12 -3
12 2 0 5 20 6 45 2 25 -4 45 -5 45 -2 0 3 11 -5 24 -17 29 -28 24 -58 -13 -73
-33 -14 -160 -18 -168 -5 -3 5 -9 3 -14 -4 -7 -11 -9 -11 -9 -1 0 7 -4 11 -9
8 -9 -6 -41 36 -41 54 0 14 20 35 38 41 20 7 76 4 90 -5z"/>
<path d="M2870 2840 c-19 -4 -48 -14 -65 -22 -33 -18 -91 -68 -78 -68 4 0 -1
-7 -11 -15 -11 -8 -16 -15 -12 -15 5 0 4 -6 -2 -12 -20 -26 -37 -158 -19 -158
5 0 7 -7 3 -15 -3 -8 0 -15 6 -15 6 0 9 -3 5 -6 -3 -4 0 -19 8 -35 32 -60 105
-109 175 -115 19 -1 35 -3 35 -4 0 -1 10 -3 22 -4 12 -1 20 1 18 4 -3 4 5 8
18 8 46 0 56 6 118 63 52 48 51 54 -11 73 -3 1 -11 5 -17 9 -8 5 -13 4 -13 -2
0 -6 -5 -11 -11 -11 -6 0 -17 -7 -26 -15 -8 -8 -19 -13 -24 -9 -5 3 -8 0 -7
-8 2 -9 -11 -12 -51 -12 -48 1 -56 5 -86 38 -22 25 -31 44 -28 59 4 22 7 22
151 21 153 -1 187 6 178 34 -3 9 -8 31 -11 49 -8 52 -21 78 -57 116 -53 58
-127 81 -208 67z m106 -105 c11 -10 19 -21 19 -24 1 -3 7 -17 14 -30 8 -14 9
-21 2 -17 -6 4 -11 3 -11 -2 0 -6 -16 -9 -35 -8 -19 1 -35 -2 -35 -7 0 -4 -5
-5 -10 -2 -6 4 -31 7 -55 7 -44 0 -45 0 -40 29 9 49 43 77 91 75 25 -1 49 -9
60 -21z"/>
<path d="M3351 2838 c-12 -4 -21 -5 -21 -1 0 3 -6 0 -13 -6 -8 -6 -16 -9 -18
-6 -8 8 -84 -60 -87 -78 -3 -18 21 -50 31 -40 3 3 19 1 34 -5 22 -7 32 -6 43
7 8 8 14 19 12 24 -1 5 2 6 7 3 5 -4 16 0 23 8 12 11 30 13 96 7 7 0 11 -5 8
-10 -4 -5 -2 -11 4 -13 5 -1 11 -18 12 -37 l3 -34 -50 -1 c-27 -1 -53 -5 -57
-11 -5 -6 -8 -4 -8 4 0 11 -4 9 -15 -5 -8 -11 -14 -14 -15 -6 0 9 -7 9 -30 -3
-17 -9 -36 -13 -42 -9 -7 5 -8 3 -4 -5 5 -8 1 -14 -11 -17 -20 -6 -60 -59 -55
-75 1 -5 -1 -9 -5 -9 -5 0 -8 -11 -8 -25 0 -14 3 -25 7 -25 3 0 4 -9 1 -20 -3
-11 0 -20 6 -20 6 0 11 -7 11 -15 0 -8 4 -15 8 -15 5 0 19 -9 31 -19 12 -11
31 -18 42 -16 10 2 19 0 19 -4 0 -4 10 -7 23 -5 12 1 22 3 22 4 0 1 11 3 25 6
14 2 36 12 50 22 45 33 60 34 60 7 0 -22 5 -25 38 -26 53 -2 76 2 83 13 3 5 5
54 5 108 -1 61 2 96 8 93 5 -4 6 -1 1 7 -4 7 -9 44 -10 81 -1 41 -8 76 -16 86
-12 15 -12 16 1 8 8 -5 3 4 -11 18 -14 15 -43 34 -65 43 -42 17 -140 25 -173
12z m134 -289 c4 -57 -32 -92 -95 -95 -28 -2 -50 1 -50 6 0 5 -7 16 -16 24 -9
9 -11 16 -4 16 6 0 8 4 5 10 -18 30 55 77 119 76 37 -1 39 -2 41 -37z"/>
<path d="M3765 2840 c-3 -6 -17 -8 -31 -6 -13 3 -25 2 -25 -2 -6 -31 -4 -440
2 -452 5 -11 21 -14 67 -12 49 3 61 7 65 23 3 10 1 19 -4 19 -6 0 -6 7 0 18 5
10 6 24 1 32 -5 8 -5 21 0 30 5 9 4 23 -1 33 -6 9 -6 17 -2 17 4 0 8 11 8 25
0 14 -3 25 -7 25 -4 0 -3 11 2 25 6 15 6 26 0 30 -7 4 -6 13 0 26 6 10 7 19 3
19 -4 0 2 8 13 18 24 23 72 39 102 34 22 -3 49 -38 38 -49 -3 -4 -1 -12 5 -20
7 -8 7 -13 2 -13 -11 0 -9 -42 2 -59 3 -6 1 -11 -6 -11 -8 0 -8 -4 1 -15 10
-12 10 -15 0 -15 -10 0 -10 -3 0 -15 10 -12 10 -15 0 -15 -10 0 -10 -3 0 -15
10 -12 10 -15 -1 -15 -10 0 -10 -3 -1 -12 7 -7 8 -17 1 -30 -7 -13 -6 -18 2
-18 9 0 9 -3 0 -14 -9 -11 -9 -15 1 -19 11 -4 10 -7 0 -15 -21 -14 14 -25 73
-22 32 1 53 7 61 18 14 19 7 45 -10 35 -6 -4 -5 1 2 10 8 9 11 21 8 26 -4 5
-2 12 3 16 6 3 8 12 5 20 -4 8 -11 12 -18 8 -6 -4 -5 1 2 10 8 9 11 21 8 26
-4 5 -2 12 3 16 6 3 8 12 5 20 -4 8 -11 12 -18 8 -8 -5 -8 -3 0 8 7 8 11 35
10 62 -2 28 2 47 8 47 8 0 8 3 1 8 -6 4 -12 17 -12 30 -4 54 -59 100 -130 107
-34 3 -119 -34 -139 -60 -10 -14 -13 -13 -24 0 -10 12 -10 15 1 15 9 1 6 7 -8
19 -12 10 -21 20 -20 22 1 3 -2 1 -7 -3 -14 -12 -38 -10 -31 2 3 6 4 10 1 10
-3 0 -8 -5 -11 -10z"/>
<path d="M4294 2839 c-3 -6 -14 -9 -24 -6 -43 11 -45 0 -44 -232 0 -122 4
-224 7 -228 7 -7 118 -5 126 2 8 9 6 437 -3 442 -4 3 -2 9 5 14 9 5 -1 7 -24
4 -24 -3 -36 -1 -32 5 3 5 4 10 1 10 -3 0 -8 -5 -12 -11z"/>
<path d="M4504 2842 c5 -9 3 -13 -5 -11 -8 1 -19 1 -25 0 -14 -1 -25 -49 -13
-57 5 -2 4 -17 -2 -32 -7 -18 -7 -28 0 -30 6 -2 7 -12 1 -27 -6 -15 -6 -27 0
-30 5 -3 6 -15 1 -28 -5 -12 -5 -32 0 -45 5 -13 5 -21 0 -18 -9 6 -5 -86 4
-112 3 -7 1 -10 -5 -7 -8 5 -3 -64 6 -74 4 -5 114 -2 123 3 3 2 6 75 6 160
l-1 156 33 32 c18 18 33 26 33 20 0 -10 5 -10 20 -2 34 18 70 -16 75 -72 1
-10 -1 -18 -5 -18 -3 0 -6 -9 -6 -19 0 -11 3 -18 7 -15 4 2 7 -7 7 -21 0 -16
-5 -22 -12 -18 -6 4 -5 -1 3 -10 11 -14 11 -17 0 -17 -9 0 -10 -3 -4 -8 14
-10 16 -94 2 -85 -6 4 -7 1 -2 -7 4 -7 8 -27 9 -44 l1 -31 65 0 c64 0 65 0 65
28 -1 15 3 27 7 27 5 0 4 10 -3 21 -9 17 -8 20 2 14 8 -6 10 -4 4 4 -9 15 -13
81 -4 81 3 0 3 20 -1 45 -4 29 -3 46 4 49 6 2 7 5 1 5 -5 1 -9 24 -9 52 2 83
-41 135 -118 142 -39 4 -118 -20 -118 -36 0 -6 -3 -8 -6 -4 -4 3 -13 0 -21 -8
-22 -23 -36 -18 -31 10 5 22 2 25 -23 25 -41 0 -42 0 -58 13 -12 10 -13 9 -7
-1z"/>
</g>
</svg>
